<svg xmlns="http://www.w3.org/2000/svg" xmlns:xlink="http://www.w3.org/1999/xlink" width="512" height="512" fill="#000" viewBox="0 0 512 512"><g id="svgGrid" class="svgGrid"><line x1="32" x2="32" y1="0" y2="512" stroke="#B35047" stroke-width="1"/><line x1="64" x2="64" y1="0" y2="512" stroke="#B35047" stroke-width="1"/><line x1="96" x2="96" y1="0" y2="512" stroke="#B35047" stroke-width="1"/><line x1="128" x2="128" y1="0" y2="512" stroke="#B35047" stroke-width="1"/><line x1="160" x2="160" y1="0" y2="512" stroke="#B35047" stroke-width="1"/><line x1="192" x2="192" y1="0" y2="512" stroke="#B35047" stroke-width="1"/><line x1="224" x2="224" y1="0" y2="512" stroke="#B35047" stroke-width="1"/><line x1="256" x2="256" y1="0" y2="512" stroke="#B35047" stroke-width="1"/><line x1="288" x2="288" y1="0" y2="512" stroke="#B35047" stroke-width="1"/><line x1="320" x2="320" y1="0" y2="512" stroke="#B35047" stroke-width="1"/><line x1="352" x2="352" y1="0" y2="512" stroke="#B35047" stroke-width="1"/><line x1="384" x2="384" y1="0" y2="512" stroke="#B35047" stroke-width="1"/><line x1="416" x2="416" y1="0" y2="512" stroke="#B35047" stroke-width="1"/><line x1="448" x2="448" y1="0" y2="512" stroke="#B35047" stroke-width="1"/><line x1="480" x2="480" y1="0" y2="512" stroke="#B35047" stroke-width="1"/><line x1="0" x2="512" y1="32" y2="32" stroke="#B35047" stroke-width="1"/><line x1="0" x2="512" y1="64" y2="64" stroke="#B35047" stroke-width="1"/><line x1="0" x2="512" y1="96" y2="96" stroke="#B35047" stroke-width="1"/><line x1="0" x2="512" y1="128" y2="128" stroke="#B35047" stroke-width="1"/><line x1="0" x2="512" y1="160" y2="160" stroke="#B35047" stroke-width="1"/><line x1="0" x2="512" y1="192" y2="192" stroke="#B35047" stroke-width="1"/><line x1="0" x2="512" y1="224" y2="224" stroke="#B35047" stroke-width="1"/><line x1="0" x2="512" y1="256" y2="256" stroke="#B35047" stroke-width="1"/><line x1="0" x2="512" y1="288" y2="288" stroke="#B35047" stroke-width="1"/><line x1="0" x2="512" y1="320" y2="320" stroke="#B35047" stroke-width="1"/><line x1="0" x2="512" y1="352" y2="352" stroke="#B35047" stroke-width="1"/><line x1="0" x2="512" y1="384" y2="384" stroke="#B35047" stroke-width="1"/><line x1="0" x2="512" y1="416" y2="416" stroke="#B35047" stroke-width="1"/><line x1="0" x2="512" y1="448" y2="448" stroke="#B35047" stroke-width="1"/><line x1="0" x2="512" y1="480" y2="480" stroke="#B35047" stroke-width="1"/><rect width="512" height="512" x="0" y="0" fill="none" stroke="#B35047" stroke-width="1"/></g><path fill="#000" d="M 256.00,128.00c-70.692,0.00-128.00,57.308-128.00,128.00s 57.308,128.00, 128.00,128.00s 128.00-57.308, 128.00-128.00S 326.692,128.00, 256.00,128.00z M 256.00,336.00L 256.00,176.00 c 44.112,0.00, 80.00,35.888, 80.00,80.00S 300.112,336.00, 256.00,336.00zM 256.00,416.00 C 273.673,416.00 288.00,430.327 288.00,448.00 L 288.00,480.00 C 288.00,497.673 273.673,512.00 256.00,512.00 C 238.327,512.00 224.00,497.673 224.00,480.00 L 224.00,448.00 C 224.00,430.327 238.327,416.00 256.00,416.00 ZM 256.00,96.00 C 238.327,96.00 224.00,81.673 224.00,64.00 L 224.00,32.00 C 224.00,14.327 238.327,0.00 256.00,0.00 C 273.673,0.00 288.00,14.327 288.00,32.00 L 288.00,64.00 C 288.00,81.673 273.673,96.00 256.00,96.00 ZM 480.00,224.00 C 497.673,224.00 512.00,238.327 512.00,256.00 C 512.00,273.673 497.673,288.00 480.00,288.00 L 448.00,288.00 C 430.327,288.00 416.00,273.673 416.00,256.00 C 416.00,238.327 430.327,224.00 448.00,224.00 L 480.00,224.00 ZM 96.00,256.00 C 96.00,273.673 81.673,288.00 64.00,288.00 L 32.00,288.00 C 14.327,288.00 0.00,273.673 0.00,256.00 C 0.00,238.327 14.327,224.00 32.00,224.00 L 64.00,224.00 C 81.673,224.00 96.00,238.327 96.00,256.00 ZM 414.392,369.137 L 437.02,391.765 C 449.516,404.261 449.516,424.523 437.02,437.02 C 424.523,449.516 404.261,449.516 391.765,437.02 L 369.137,414.392 C 356.641,401.896 356.641,381.634 369.137,369.137 C 381.634,356.641 401.896,356.641 414.392,369.137 ZM 97.608,142.863 L 74.98,120.235 C 62.483,107.738 62.483,87.477 74.98,74.98 C 87.477,62.483 107.738,62.483 120.235,74.98 L 142.863,97.608 C 155.36,110.105 155.36,130.366 142.863,142.863 C 130.366,155.36 110.105,155.36 97.608,142.863 ZM 414.392,142.863 C 401.896,155.359 381.634,155.359 369.137,142.863 C 356.641,130.366 356.641,110.105 369.137,97.608 L 391.765,74.981 C 404.261,62.484 424.523,62.484 437.02,74.981 C 449.516,87.478 449.516,107.739 437.02,120.236 L 414.392,142.863 ZM 97.608,369.137 C 110.104,356.641 130.366,356.641 142.862,369.137 C 155.359,381.634 155.359,401.896 142.862,414.392 L 120.235,437.02 C 107.738,449.516 87.477,449.516 74.98,437.02 C 62.483,424.523 62.483,404.261 74.98,391.765 L 97.608,369.137 Z"/></svg>