<svg xmlns="http://www.w3.org/2000/svg" xmlns:svg="http://www.w3.org/2000/svg" xmlns:xlink="http://www.w3.org/1999/xlink" id="svg13276" width="92.332" height="92.332" version="1.1" viewBox="0 0 24.43 24.43"><defs id="defs13270"><linearGradient id="linearGradient12815" x1="69.034" x2="81.615" y1="126.576" y2="128.125" gradientTransform="translate(-481.8824,-314.39909)" gradientUnits="userSpaceOnUse" spreadMethod="repeat" xlink:href="#linearGradient12789"/><linearGradient id="linearGradient12789"><stop id="stop12785" offset="0" style="stop-color:#000;stop-opacity:1"/><stop id="stop12787" offset="1" style="stop-color:#757575;stop-opacity:1"/></linearGradient><linearGradient id="linearGradient12815-7" x1="69.034" x2="81.615" y1="126.576" y2="128.125" gradientTransform="translate(-490.67318,-305.52792)" gradientUnits="userSpaceOnUse" spreadMethod="repeat" xlink:href="#linearGradient12789"/></defs><metadata id="metadata13273"/><g id="layer1" transform="translate(429.50047,196.00047)"><rect style="fill:url(#linearGradient12815-7);fill-opacity:1;stroke:none;stroke-width:3;stroke-linejoin:round;stroke-miterlimit:4;stroke-dasharray:none;stroke-opacity:1" id="rect12791-7" width="13.582" height="13.03" x="-428.091" y="-185.79"/><rect style="fill:url(#linearGradient12815);fill-opacity:1;stroke:none;stroke-width:3;stroke-linejoin:round;stroke-miterlimit:4;stroke-dasharray:none;stroke-opacity:1" id="rect12791" width="13.582" height="13.03" x="-419.3" y="-194.661"/><path id="path12721" d="m -415.56777,-174.34697 c 0,0.45138 -0.36778,0.81862 -0.81942,0.81862 h -10.33701 c -0.45164,0 -0.81915,-0.36724 -0.81915,-0.81862 v -10.3378 c 0,-0.45164 0.36751,-0.81941 0.81915,-0.81941 h 4.81833 v -1.95686 h -4.81833 c -1.53087,0 -2.77627,1.24539 -2.77627,2.77627 v 10.3378 c 0,1.53062 1.2454,2.77601 2.77627,2.77601 h 10.33701 c 1.53088,0 2.77654,-1.24539 2.77654,-2.77601 v -4.81912 h -1.95712 z m 7.72027,-21.6535 h -10.33674 c -1.53088,0 -2.77654,1.2454 -2.77654,2.77628 v 10.33674 c 0,1.53088 1.24566,2.77627 2.77654,2.77627 h 10.33674 c 1.53088,0 2.77654,-1.24539 2.77654,-2.77627 v -10.33674 c 0,-1.53088 -1.24566,-2.77628 -2.77654,-2.77628 z m 0.81915,13.11328 c 0,0.45165 -0.3675,0.81942 -0.81915,0.81942 h -10.33674 c -0.45164,0 -0.81941,-0.36777 -0.81941,-0.81942 v -10.337 c 0,-0.45165 0.36777,-0.81915 0.81941,-0.81915 h 10.33674 c 0.45165,0 0.81915,0.3675 0.81915,0.81915 z" style="fill:#e7e7e7;fill-opacity:1;stroke-width:.26458332"/></g></svg>