<svg xmlns="http://www.w3.org/2000/svg" xmlns:svg="http://www.w3.org/2000/svg" xmlns:xlink="http://www.w3.org/1999/xlink" id="Layer_1" width="760.119" height="517.2" x="0" y="0" enable-background="new 0 0 512 512" version="1.1" viewBox="0 0 760.119 517.2" xml:space="preserve"><metadata id="metadata19"/><defs id="defs17"><linearGradient id="linearGradient4922"><stop style="stop-color:#e9e8fc;stop-opacity:1" id="stop4924" offset="0"/><stop style="stop-color:#000;stop-opacity:1" id="stop4926" offset="1"/></linearGradient><linearGradient id="linearGradient4914"><stop style="stop-color:#b9e0b8;stop-opacity:1" id="stop4916" offset="0"/><stop style="stop-color:#000;stop-opacity:1" id="stop4918" offset="1"/></linearGradient><linearGradient id="linearGradient4186"><stop style="stop-color:#fff;stop-opacity:1" id="stop4188" offset="0"/><stop style="stop-color:#666;stop-opacity:1" id="stop4190" offset="1"/></linearGradient><linearGradient id="linearGradient4192" x1="294.076" x2="413.422" y1="226.212" y2="443.844" gradientTransform="matrix(0.99888657,0,0,1.0382366,31.243125,-6.8848732)" gradientUnits="userSpaceOnUse" xlink:href="#linearGradient4186"/><filter style="color-interpolation-filters:sRGB" id="filter4878" width="1.37" height="1.25"><feFlood id="feFlood4880" flood-color="#000" flood-opacity=".498" result="flood"/><feComposite id="feComposite4882" in="flood" in2="SourceGraphic" operator="in" result="composite1"/><feGaussianBlur id="feGaussianBlur4884" in="composite1" result="blur" stdDeviation="10.6"/><feOffset id="feOffset4886" dx="20" dy="15" result="offset"/><feComposite id="feComposite4888" in="SourceGraphic" in2="offset" operator="over" result="composite2"/></filter><linearGradient id="linearGradient4920" x1="732.265" x2="366.183" y1="486.568" y2="142.651" gradientTransform="matrix(0.95861477,0,0,1.0022011,31.139955,-0.81162097)" gradientUnits="userSpaceOnUse" xlink:href="#linearGradient4914"/><linearGradient id="linearGradient4928" x1="117.836" x2="529.025" y1="109.584" y2="219.199" gradientUnits="userSpaceOnUse" xlink:href="#linearGradient4922"/></defs><rect style="fill:url(#linearGradient4928);fill-opacity:1;stroke:#000;stroke-width:33.91847992;stroke-miterlimit:4;stroke-dasharray:none;stroke-opacity:1" id="rect3356" width="392.343" height="277.677" x="16.959" y="17.332"/><rect style="fill:url(#linearGradient4920);fill-opacity:1;stroke:#000;stroke-width:28.90398407;stroke-miterlimit:18.89999962;stroke-dasharray:none;stroke-opacity:1" id="rect3358" width="399.046" height="266.31" x="346.621" y="235.577"/><rect style="opacity:1;fill:#f2f2f2;fill-opacity:1;stroke:none;stroke-width:6.33400011;stroke-miterlimit:4;stroke-dasharray:none;stroke-opacity:1" id="rect4698" width="155.354" height="261.44" x="290.503" y="18.3"/><path style="fill:url(#linearGradient4192);fill-opacity:1;stroke:#000;stroke-width:20.36742973;stroke-miterlimit:4;stroke-dasharray:none;stroke-opacity:1;filter:url(#filter4878)" id="path9" d="M 347.0562,10.279582 C 275.34098,9.7678629 217.20095,70.428647 217.20095,145.68367 l 0,132.89023 0,98.58584 c 0,72.13875 58.1382,130.61706 129.85525,130.61706 l 69.92206,0 c 71.71705,0 129.85525,-58.47831 129.85525,-130.61706 l 0,-98.58584 0,-0.2474 0,-132.64283 c 0,-75.255023 -58.16297,-137.2889193 -129.85525,-135.404088 l -26.05858,0.685094 -0.85637,75.624027 c 18.99352,-0.110385 35.46206,22.504147 35.46206,39.834867 l 0,73.59921 c 0,21.78498 -13.78446,37.50898 -28.45008,38.37109 l -32.64843,-0.40286 c -16.02818,-0.0523 -25.91777,-20.83791 -25.91777,-37.96615 l 0,-73.60123 c 0,-17.33078 14.2596,-38.91767 32.0552,-39.395587 l 0.4952,-76.577188 z"/></svg>