<svg xmlns="http://www.w3.org/2000/svg" xmlns:svg="http://www.w3.org/2000/svg" id="svg2" width="1052.362" height="744.1" version="1.1" viewBox="0 0 1052.362 744.1" xml:space="preserve"><metadata id="metadata8"/><defs id="defs6"><clipPath id="clipPath16" clipPathUnits="userSpaceOnUse"><path id="path18" d="m 168,35 572.999,0 0,531 L 168,566 168,35 Z"/></clipPath><linearGradient id="linearGradient36" x1="0" x2="1" y1="0" y2="0" gradientTransform="matrix(59.811344,-133.78853,-133.78853,-59.811344,238.26367,194.5625)" gradientUnits="userSpaceOnUse" spreadMethod="pad"><stop style="stop-opacity:1;stop-color:#fefefe" id="stop38" offset="0"/><stop style="stop-opacity:1;stop-color:#979595" id="stop40" offset=".922"/><stop style="stop-opacity:1;stop-color:#979595" id="stop42" offset="1"/></linearGradient><clipPath id="clipPath50" clipPathUnits="userSpaceOnUse"><path id="path52" d="m 168,35 572.999,0 0,531 L 168,566 168,35 Z"/></clipPath><clipPath id="clipPath66" clipPathUnits="userSpaceOnUse"><path id="path68" d="m 267.115,189.084 c -16.511,-0.242 -31.437,-7.036 -42.296,-17.891 l 0,0 c -10.587,-10.585 -17.31,-25.037 -17.868,-41.057 l 0,0 c -0.588,-16.858 5.936,-33.462 17.868,-45.392 l 0,0 c 10.859,-10.858 25.785,-17.648 42.296,-17.892 l 0,0 c 16.436,-0.235 32.505,6.263 44.134,17.888 l 0,0 c 11.935,11.928 18.461,28.536 17.87,45.396 l 0,0 c -0.558,16.022 -7.28,30.475 -17.87,41.061 l 0,0 c -11.425,11.422 -27.137,17.892 -43.272,17.893 l 0,0 c -0.287,0 -0.574,-0.002 -0.862,-0.006"/></clipPath><clipPath id="clipPath456" clipPathUnits="userSpaceOnUse"><path id="path458" d="m 168,35 572.999,0 0,531 L 168,566 168,35 Z"/></clipPath><clipPath id="clipPath464" clipPathUnits="userSpaceOnUse"><path id="path466" d="m 206.126,186.033 44.564,0 0,-66.972 -44.564,0 0,66.972 z"/></clipPath><linearGradient id="linearGradient472" x1="0" x2="1" y1="0" y2="0" gradientTransform="matrix(44.564453,0,0,-44.564453,206.12598,152.54687)" gradientUnits="userSpaceOnUse" spreadMethod="pad"><stop style="stop-opacity:1;stop-color:#c6c5c5" id="stop474" offset="0"/><stop style="stop-opacity:1;stop-color:#c6c5c5" id="stop476" offset=".185"/><stop style="stop-opacity:1;stop-color:#fefefe" id="stop478" offset=".527"/><stop style="stop-opacity:1;stop-color:#979595" id="stop480" offset=".92"/><stop style="stop-opacity:1;stop-color:#979595" id="stop482" offset="1"/></linearGradient><clipPath id="clipPath502" clipPathUnits="userSpaceOnUse"><path id="path504" d="m 279.238,130.477 50.366,0 0,-62.3735 -50.366,0 0,62.3735 z"/></clipPath><linearGradient id="linearGradient510" x1="0" x2="1" y1="0" y2="0" gradientTransform="matrix(-13.608669,42.436794,-42.436794,-13.608669,311.2876,77.814453)" gradientUnits="userSpaceOnUse" spreadMethod="pad"><stop style="stop-opacity:1;stop-color:#c6c5c5" id="stop512" offset="0"/><stop style="stop-opacity:1;stop-color:#c6c5c5" id="stop514" offset=".185"/><stop style="stop-opacity:1;stop-color:#fefefe" id="stop516" offset=".527"/><stop style="stop-opacity:1;stop-color:#979595" id="stop518" offset=".92"/><stop style="stop-opacity:1;stop-color:#979595" id="stop520" offset="1"/></linearGradient><clipPath id="clipPath548" clipPathUnits="userSpaceOnUse"><path id="path550" d="m 207.165,189.092 120.689,0 0,-67.937 -120.689,0 0,67.937 z"/></clipPath><linearGradient id="linearGradient556" x1="0" x2="1" y1="0" y2="0" gradientTransform="matrix(120.68945,0,0,-120.68945,207.16455,155.12305)" gradientUnits="userSpaceOnUse" spreadMethod="pad"><stop style="stop-opacity:1;stop-color:#c6c5c5" id="stop558" offset="0"/><stop style="stop-opacity:1;stop-color:#fefefe" id="stop560" offset=".156"/><stop style="stop-opacity:1;stop-color:#fefefe" id="stop562" offset=".548"/><stop style="stop-opacity:1;stop-color:#fefefe" id="stop564" offset=".909"/><stop style="stop-opacity:1;stop-color:#979595" id="stop566" offset="1"/></linearGradient><linearGradient id="linearGradient598" x1="0" x2="1" y1="0" y2="0" gradientTransform="matrix(130.64107,-292.22345,-292.22345,-130.64107,460.85547,531.60938)" gradientUnits="userSpaceOnUse" spreadMethod="pad"><stop style="stop-opacity:1;stop-color:#fefefe" id="stop600" offset="0"/><stop style="stop-opacity:1;stop-color:#979595" id="stop602" offset=".922"/><stop style="stop-opacity:1;stop-color:#979595" id="stop604" offset="1"/></linearGradient><clipPath id="clipPath612" clipPathUnits="userSpaceOnUse"><path id="path614" d="m 168,35 572.999,0 0,531 L 168,566 168,35 Z"/></clipPath><clipPath id="clipPath628" clipPathUnits="userSpaceOnUse"><path id="path630" d="m 431.487,480.566 c -24.164,-24.162 -39.111,-57.541 -39.111,-94.413 l 0,0 c 0,-36.871 14.947,-70.25 39.111,-94.411 l 0,0 c 24.16,-24.154 57.533,-39.094 94.396,-39.094 l 0,0 c 36.857,0 70.227,14.934 94.384,39.084 l 0,0 c 24.172,24.163 39.122,57.545 39.122,94.421 l 0,0 c 0,36.877 -14.95,70.26 -39.122,94.421 l 0,0 c -24.157,24.15 -57.527,39.085 -94.384,39.085 l 0,0 c -36.863,0 -70.236,-14.94 -94.396,-39.093"/></clipPath><clipPath id="clipPath1018" clipPathUnits="userSpaceOnUse"><path id="path1020" d="m 168,35 572.999,0 0,531 L 168,566 168,35 Z"/></clipPath><clipPath id="clipPath1026" clipPathUnits="userSpaceOnUse"><path id="path1028" d="m 390.658,512.978 97.337,0 0,-146.277 -97.337,0 0,146.277 z"/></clipPath><linearGradient id="linearGradient1034" x1="0" x2="1" y1="0" y2="0" gradientTransform="matrix(97.336914,0,0,-97.336914,390.6582,439.83936)" gradientUnits="userSpaceOnUse" spreadMethod="pad"><stop style="stop-opacity:1;stop-color:#c6c5c5" id="stop1036" offset="0"/><stop style="stop-opacity:1;stop-color:#c6c5c5" id="stop1038" offset=".185"/><stop style="stop-opacity:1;stop-color:#fefefe" id="stop1040" offset=".527"/><stop style="stop-opacity:1;stop-color:#979595" id="stop1042" offset=".92"/><stop style="stop-opacity:1;stop-color:#979595" id="stop1044" offset="1"/></linearGradient><clipPath id="clipPath1064" clipPathUnits="userSpaceOnUse"><path id="path1066" d="m 550.349,391.629 110.014,0 0,-136.236 -110.014,0 0,136.236 z"/></clipPath><linearGradient id="linearGradient1072" x1="0" x2="1" y1="0" y2="0" gradientTransform="matrix(-29.723171,92.687691,-92.687691,-29.723171,620.35254,276.60742)" gradientUnits="userSpaceOnUse" spreadMethod="pad"><stop style="stop-opacity:1;stop-color:#c6c5c5" id="stop1074" offset="0"/><stop style="stop-opacity:1;stop-color:#c6c5c5" id="stop1076" offset=".185"/><stop style="stop-opacity:1;stop-color:#fefefe" id="stop1078" offset=".527"/><stop style="stop-opacity:1;stop-color:#979595" id="stop1080" offset=".92"/><stop style="stop-opacity:1;stop-color:#979595" id="stop1082" offset="1"/></linearGradient><clipPath id="clipPath1110" clipPathUnits="userSpaceOnUse"><path id="path1112" d="m 392.926,519.659 263.61,0 0,-148.387 -263.61,0 0,148.387 z"/></clipPath><linearGradient id="linearGradient1118" x1="0" x2="1" y1="0" y2="0" gradientTransform="matrix(263.61035,0,0,-263.61035,392.92578,445.46582)" gradientUnits="userSpaceOnUse" spreadMethod="pad"><stop style="stop-opacity:1;stop-color:#c6c5c5" id="stop1120" offset="0"/><stop style="stop-opacity:1;stop-color:#fefefe" id="stop1122" offset=".156"/><stop style="stop-opacity:1;stop-color:#fefefe" id="stop1124" offset=".548"/><stop style="stop-opacity:1;stop-color:#fefefe" id="stop1126" offset=".909"/><stop style="stop-opacity:1;stop-color:#979595" id="stop1128" offset="1"/></linearGradient><linearGradient id="linearGradient1160" x1="0" x2="1" y1="0" y2="0" gradientTransform="matrix(59.811344,-133.78853,-133.78853,-59.811344,238.26465,543.16309)" gradientUnits="userSpaceOnUse" spreadMethod="pad"><stop style="stop-opacity:1;stop-color:#fefefe" id="stop1162" offset="0"/><stop style="stop-opacity:1;stop-color:#979595" id="stop1164" offset=".922"/><stop style="stop-opacity:1;stop-color:#979595" id="stop1166" offset="1"/></linearGradient><clipPath id="clipPath1174" clipPathUnits="userSpaceOnUse"><path id="path1176" d="m 168,35 572.999,0 0,531 L 168,566 168,35 Z"/></clipPath><clipPath id="clipPath1190" clipPathUnits="userSpaceOnUse"><path id="path1192" d="m 267.118,537.685 c -16.511,-0.242 -31.439,-7.033 -42.299,-17.891 l 0,0 C 213.254,508.23 206.734,492.247 206.916,475.893 l 0,0 c 0.18,-16.612 6.988,-31.634 17.903,-42.548 l 0,0 c 10.86,-10.859 25.788,-17.648 42.299,-17.891 l 0,0 c 16.422,-0.27 32.521,6.281 44.131,17.886 l 0,0 c 10.918,10.914 17.725,25.939 17.906,42.551 l 0,0 c 0.182,16.359 -6.337,32.343 -17.906,43.908 l 0,0 c -11.382,11.374 -27.075,17.893 -43.157,17.894 l 0,0 c -0.325,0 -0.648,-0.003 -0.974,-0.008"/></clipPath><clipPath id="clipPath1580" clipPathUnits="userSpaceOnUse"><path id="path1582" d="m 168,35 572.999,0 0,531 L 168,566 168,35 Z"/></clipPath><clipPath id="clipPath1588" clipPathUnits="userSpaceOnUse"><path id="path1590" d="m 206.125,534.633 44.565,0 0,-66.971 -44.565,0 0,66.971 z"/></clipPath><linearGradient id="linearGradient1596" x1="0" x2="1" y1="0" y2="0" gradientTransform="matrix(44.564941,0,0,-44.564941,206.12549,501.14746)" gradientUnits="userSpaceOnUse" spreadMethod="pad"><stop style="stop-opacity:1;stop-color:#c6c5c5" id="stop1598" offset="0"/><stop style="stop-opacity:1;stop-color:#c6c5c5" id="stop1600" offset=".185"/><stop style="stop-opacity:1;stop-color:#fefefe" id="stop1602" offset=".527"/><stop style="stop-opacity:1;stop-color:#979595" id="stop1604" offset=".92"/><stop style="stop-opacity:1;stop-color:#979595" id="stop1606" offset="1"/></linearGradient><clipPath id="clipPath1626" clipPathUnits="userSpaceOnUse"><path id="path1628" d="m 279.238,479.075 50.367,0 0,-62.372 -50.367,0 0,62.372 z"/></clipPath><linearGradient id="linearGradient1634" x1="0" x2="1" y1="0" y2="0" gradientTransform="matrix(-13.608072,42.434936,-42.434936,-13.608072,311.2876,426.41504)" gradientUnits="userSpaceOnUse" spreadMethod="pad"><stop style="stop-opacity:1;stop-color:#c6c5c5" id="stop1636" offset="0"/><stop style="stop-opacity:1;stop-color:#c6c5c5" id="stop1638" offset=".185"/><stop style="stop-opacity:1;stop-color:#fefefe" id="stop1640" offset=".527"/><stop style="stop-opacity:1;stop-color:#979595" id="stop1642" offset=".92"/><stop style="stop-opacity:1;stop-color:#979595" id="stop1644" offset="1"/></linearGradient><clipPath id="clipPath1672" clipPathUnits="userSpaceOnUse"><path id="path1674" d="m 207.164,537.693 120.69,0 0,-67.937 -120.69,0 0,67.937 z"/></clipPath><linearGradient id="linearGradient1680" x1="0" x2="1" y1="0" y2="0" gradientTransform="matrix(120.69043,0,0,-120.69043,207.16357,503.72461)" gradientUnits="userSpaceOnUse" spreadMethod="pad"><stop style="stop-opacity:1;stop-color:#c6c5c5" id="stop1682" offset="0"/><stop style="stop-opacity:1;stop-color:#fefefe" id="stop1684" offset=".156"/><stop style="stop-opacity:1;stop-color:#fefefe" id="stop1686" offset=".548"/><stop style="stop-opacity:1;stop-color:#fefefe" id="stop1688" offset=".909"/><stop style="stop-opacity:1;stop-color:#979595" id="stop1690" offset="1"/></linearGradient><linearGradient id="linearGradient1722" x1="0" x2="1" y1="0" y2="0" gradientTransform="matrix(59.810944,-133.78764,-133.78764,-59.810944,617.67969,194.5625)" gradientUnits="userSpaceOnUse" spreadMethod="pad"><stop style="stop-opacity:1;stop-color:#fefefe" id="stop1724" offset="0"/><stop style="stop-opacity:1;stop-color:#979595" id="stop1726" offset=".922"/><stop style="stop-opacity:1;stop-color:#979595" id="stop1728" offset="1"/></linearGradient><clipPath id="clipPath1736" clipPathUnits="userSpaceOnUse"><path id="path1738" d="m 168,35 572.999,0 0,531 L 168,566 168,35 Z"/></clipPath><clipPath id="clipPath1752" clipPathUnits="userSpaceOnUse"><path id="path1754" d="m 604.233,171.193 c -11.564,-11.565 -18.084,-27.547 -17.901,-43.902 l 0,0 c 0.179,-16.612 6.988,-31.633 17.901,-42.547 l 0,0 c 11.442,-11.437 27.156,-17.898 43.324,-17.898 l 0,0 c 16.066,0.013 31.738,6.529 43.106,17.894 l 0,0 c 10.919,10.912 17.726,25.938 17.906,42.551 l 0,0 c 0.184,16.357 -6.337,32.342 -17.906,43.906 l 0,0 c -11.368,11.364 -27.04,17.883 -43.106,17.895 l 0,0 c -16.168,0 -31.882,-6.46 -43.324,-17.899"/></clipPath><clipPath id="clipPath2126" clipPathUnits="userSpaceOnUse"><path id="path2128" d="m 168,35 572.999,0 0,531 L 168,566 168,35 Z"/></clipPath><clipPath id="clipPath2134" clipPathUnits="userSpaceOnUse"><path id="path2136" d="m 585.541,186.033 44.563,0 0,-66.972 -44.563,0 0,66.972 z"/></clipPath><linearGradient id="linearGradient2142" x1="0" x2="1" y1="0" y2="0" gradientTransform="matrix(44.563477,0,0,-44.563477,585.54102,152.54687)" gradientUnits="userSpaceOnUse" spreadMethod="pad"><stop style="stop-opacity:1;stop-color:#c6c5c5" id="stop2144" offset="0"/><stop style="stop-opacity:1;stop-color:#c6c5c5" id="stop2146" offset=".185"/><stop style="stop-opacity:1;stop-color:#fefefe" id="stop2148" offset=".527"/><stop style="stop-opacity:1;stop-color:#979595" id="stop2150" offset=".92"/><stop style="stop-opacity:1;stop-color:#979595" id="stop2152" offset="1"/></linearGradient><clipPath id="clipPath2172" clipPathUnits="userSpaceOnUse"><path id="path2174" d="m 658.652,130.477 50.369,0 0,-62.3735 -50.369,0 0,62.3735 z"/></clipPath><linearGradient id="linearGradient2180" x1="0" x2="1" y1="0" y2="0" gradientTransform="matrix(-13.60852,42.436329,-42.436329,-13.60852,690.7041,77.81543)" gradientUnits="userSpaceOnUse" spreadMethod="pad"><stop style="stop-opacity:1;stop-color:#c6c5c5" id="stop2182" offset="0"/><stop style="stop-opacity:1;stop-color:#c6c5c5" id="stop2184" offset=".185"/><stop style="stop-opacity:1;stop-color:#fefefe" id="stop2186" offset=".527"/><stop style="stop-opacity:1;stop-color:#979595" id="stop2188" offset=".92"/><stop style="stop-opacity:1;stop-color:#979595" id="stop2190" offset="1"/></linearGradient><clipPath id="clipPath2218" clipPathUnits="userSpaceOnUse"><path id="path2220" d="m 586.579,189.092 120.69,0 0,-67.937 -120.69,0 0,67.937 z"/></clipPath><linearGradient id="linearGradient2226" x1="0" x2="1" y1="0" y2="0" gradientTransform="matrix(120.68945,0,0,-120.68945,641.26075,241.77243)" gradientUnits="userSpaceOnUse" spreadMethod="pad"><stop style="stop-opacity:1;stop-color:#c6c5c5" id="stop2228" offset="0"/><stop style="stop-opacity:1;stop-color:#fefefe" id="stop2230" offset=".156"/><stop style="stop-opacity:1;stop-color:#fefefe" id="stop2232" offset=".548"/><stop style="stop-opacity:1;stop-color:#fefefe" id="stop2234" offset=".909"/><stop style="stop-opacity:1;stop-color:#979595" id="stop2236" offset="1"/></linearGradient><linearGradient id="linearGradient2268" x1="0" x2="1" y1="0" y2="0" gradientTransform="matrix(59.811741,-133.78943,-133.78943,-59.811741,238.26416,369.50537)" gradientUnits="userSpaceOnUse" spreadMethod="pad"><stop style="stop-opacity:1;stop-color:#fefefe" id="stop2270" offset="0"/><stop style="stop-opacity:1;stop-color:#979595" id="stop2272" offset=".922"/><stop style="stop-opacity:1;stop-color:#979595" id="stop2274" offset="1"/></linearGradient><clipPath id="clipPath2282" clipPathUnits="userSpaceOnUse"><path id="path2284" d="m 168,35 572.999,0 0,531 L 168,566 168,35 Z"/></clipPath><clipPath id="clipPath2298" clipPathUnits="userSpaceOnUse"><path id="path2300" d="m 266.125,364.004 c -16.118,-0.496 -30.664,-7.229 -41.306,-17.869 l 0,0 c -11.804,-11.802 -18.311,-28.169 -17.886,-44.85 l 0,0 c 0.424,-16.234 7.18,-30.893 17.886,-41.597 l 0,0 c 10.642,-10.641 25.188,-17.376 41.306,-17.87 l 0,0 c 16.763,-0.529 33.264,6.01 45.124,17.863 l 0,0 c 10.71,10.706 17.465,25.368 17.889,41.604 l 0,0 c 0.426,16.684 -6.082,33.051 -17.889,44.855 l 0,0 c -11.414,11.408 -27.129,17.893 -43.237,17.894 l 0,0 c -0.629,0 -1.257,-0.01 -1.887,-0.03"/></clipPath><clipPath id="clipPath2640" clipPathUnits="userSpaceOnUse"><path id="path2642" d="m 168,35 572.999,0 0,531 L 168,566 168,35 Z"/></clipPath><clipPath id="clipPath2648" clipPathUnits="userSpaceOnUse"><path id="path2650" d="m 206.125,360.974 44.565,0 0,-66.97 -44.565,0 0,66.97 z"/></clipPath><linearGradient id="linearGradient2656" x1="0" x2="1" y1="0" y2="0" gradientTransform="matrix(44.564941,0,0,-44.564941,206.12549,327.48926)" gradientUnits="userSpaceOnUse" spreadMethod="pad"><stop style="stop-opacity:1;stop-color:#c6c5c5" id="stop2658" offset="0"/><stop style="stop-opacity:1;stop-color:#c6c5c5" id="stop2660" offset=".185"/><stop style="stop-opacity:1;stop-color:#fefefe" id="stop2662" offset=".527"/><stop style="stop-opacity:1;stop-color:#979595" id="stop2664" offset=".92"/><stop style="stop-opacity:1;stop-color:#979595" id="stop2666" offset="1"/></linearGradient><clipPath id="clipPath2686" clipPathUnits="userSpaceOnUse"><path id="path2688" d="m 279.238,305.417 50.367,0 0,-62.372 -50.367,0 0,62.372 z"/></clipPath><linearGradient id="linearGradient2694" x1="0" x2="1" y1="0" y2="0" gradientTransform="matrix(-13.608669,42.436794,-42.436794,-13.608669,311.2876,252.75488)" gradientUnits="userSpaceOnUse" spreadMethod="pad"><stop style="stop-opacity:1;stop-color:#c6c5c5" id="stop2696" offset="0"/><stop style="stop-opacity:1;stop-color:#c6c5c5" id="stop2698" offset=".185"/><stop style="stop-opacity:1;stop-color:#fefefe" id="stop2700" offset=".527"/><stop style="stop-opacity:1;stop-color:#979595" id="stop2702" offset=".92"/><stop style="stop-opacity:1;stop-color:#979595" id="stop2704" offset="1"/></linearGradient><clipPath id="clipPath2732" clipPathUnits="userSpaceOnUse"><path id="path2734" d="m 207.164,364.034 120.69,0 0,-67.937 -120.69,0 0,67.937 z"/></clipPath><linearGradient id="linearGradient2740" x1="0" x2="1" y1="0" y2="0" gradientTransform="matrix(120.69043,0,0,-120.69043,207.16357,330.06543)" gradientUnits="userSpaceOnUse" spreadMethod="pad"><stop style="stop-opacity:1;stop-color:#c6c5c5" id="stop2742" offset="0"/><stop style="stop-opacity:1;stop-color:#fefefe" id="stop2744" offset=".156"/><stop style="stop-opacity:1;stop-color:#fefefe" id="stop2746" offset=".548"/><stop style="stop-opacity:1;stop-color:#fefefe" id="stop2748" offset=".909"/><stop style="stop-opacity:1;stop-color:#979595" id="stop2750" offset="1"/></linearGradient><linearGradient id="linearGradient2782" x1="0" x2="1" y1="0" y2="0" gradientTransform="matrix(59.811344,-133.78853,-133.78853,-59.811344,431.82324,194.56348)" gradientUnits="userSpaceOnUse" spreadMethod="pad"><stop style="stop-opacity:1;stop-color:#fefefe" id="stop2784" offset="0"/><stop style="stop-opacity:1;stop-color:#979595" id="stop2786" offset=".922"/><stop style="stop-opacity:1;stop-color:#979595" id="stop2788" offset="1"/></linearGradient><clipPath id="clipPath2796" clipPathUnits="userSpaceOnUse"><path id="path2798" d="m 168,35 572.999,0 0,531 L 168,566 168,35 Z"/></clipPath><clipPath id="clipPath2812" clipPathUnits="userSpaceOnUse"><path id="path2814" d="m 459.609,189.06 c -16.087,-0.513 -30.606,-7.244 -41.23,-17.867 l 0,0 c -10.855,-10.854 -17.649,-25.769 -17.9,-42.275 l 0,0 c -0.261,-16.448 6.271,-32.547 17.9,-44.174 l 0,0 c 10.624,-10.621 25.143,-17.354 41.23,-17.867 l 0,0 c 16.792,-0.543 33.317,5.986 45.199,17.863 l 0,0 c 11.633,11.628 18.164,27.73 17.903,44.178 l 0,0 c -0.251,16.508 -7.045,31.428 -17.903,42.279 l 0,0 c -11.423,11.417 -27.139,17.894 -43.256,17.895 l 0,0 c -0.647,0 -1.294,-0.011 -1.943,-0.032"/></clipPath><clipPath id="clipPath3106" clipPathUnits="userSpaceOnUse"><path id="path3108" d="m 168,35 572.999,0 0,531 L 168,566 168,35 Z"/></clipPath><clipPath id="clipPath3114" clipPathUnits="userSpaceOnUse"><path id="path3116" d="m 399.687,186.033 44.563,0 0,-66.972 -44.563,0 0,66.972 z"/></clipPath><linearGradient id="linearGradient3122" x1="0" x2="1" y1="0" y2="0" gradientTransform="matrix(44.563477,0,0,-44.563477,399.68652,152.54687)" gradientUnits="userSpaceOnUse" spreadMethod="pad"><stop style="stop-opacity:1;stop-color:#c6c5c5" id="stop3124" offset="0"/><stop style="stop-opacity:1;stop-color:#c6c5c5" id="stop3126" offset=".185"/><stop style="stop-opacity:1;stop-color:#fefefe" id="stop3128" offset=".527"/><stop style="stop-opacity:1;stop-color:#979595" id="stop3130" offset=".92"/><stop style="stop-opacity:1;stop-color:#979595" id="stop3132" offset="1"/></linearGradient><clipPath id="clipPath3152" clipPathUnits="userSpaceOnUse"><path id="path3154" d="m 472.798,130.477 50.367,0 0,-62.3735 -50.367,0 0,62.3735 z"/></clipPath><linearGradient id="linearGradient3160" x1="0" x2="1" y1="0" y2="0" gradientTransform="matrix(-13.608968,42.437725,-42.437725,-13.608968,504.84766,77.814453)" gradientUnits="userSpaceOnUse" spreadMethod="pad"><stop style="stop-opacity:1;stop-color:#c6c5c5" id="stop3162" offset="0"/><stop style="stop-opacity:1;stop-color:#c6c5c5" id="stop3164" offset=".185"/><stop style="stop-opacity:1;stop-color:#fefefe" id="stop3166" offset=".527"/><stop style="stop-opacity:1;stop-color:#979595" id="stop3168" offset=".92"/><stop style="stop-opacity:1;stop-color:#979595" id="stop3170" offset="1"/></linearGradient><clipPath id="clipPath3198" clipPathUnits="userSpaceOnUse"><path id="path3200" d="m 400.724,189.092 120.689,0 0,-67.937 -120.689,0 0,67.937 z"/></clipPath><linearGradient id="linearGradient3206" x1="0" x2="1" y1="0" y2="0" gradientTransform="matrix(120.68945,0,0,-120.68945,400.72363,155.12305)" gradientUnits="userSpaceOnUse" spreadMethod="pad"><stop style="stop-opacity:1;stop-color:#c6c5c5" id="stop3208" offset="0"/><stop style="stop-opacity:1;stop-color:#fefefe" id="stop3210" offset=".156"/><stop style="stop-opacity:1;stop-color:#fefefe" id="stop3212" offset=".548"/><stop style="stop-opacity:1;stop-color:#fefefe" id="stop3214" offset=".909"/><stop style="stop-opacity:1;stop-color:#979595" id="stop3216" offset="1"/></linearGradient></defs><g id="g10" transform="matrix(1.25,0,0,-1.25,0,744.1)"><g id="g8367" transform="translate(141.57619,309.32612)"><g id="g536" transform="translate(278.1372,140.9434)"><path id="path538" d="m 0,0 c 5.189,-3.445 8.612,-9.34 8.612,-16.035 0,-10.625 -8.612,-19.238 -19.238,-19.238 -10.624,0 -19.237,8.613 -19.237,19.238 0,6.693 3.423,12.586 8.613,16.029 6.279,3.733 5.623,6.225 5.623,6.225 -0.788,4.328 -5.623,3.25 -5.623,3.25 -9.986,-4.162 -17.008,-14.01 -17.008,-25.504 0,-15.26 12.372,-27.631 27.632,-27.631 15.262,0 27.633,12.371 27.633,27.631 0,11.494 -7.022,21.342 -17.007,25.504 0,0 -4.609,1.078 -5.79,-2.332 0,0 -1.049,-4.59 5.79,-7.137" style="fill:#005200;fill-opacity:1;fill-rule:nonzero;stroke:none"/></g><g id="g540" transform="translate(270.6421,136.9531)"><path id="path542" d="m 0,0 c 0,-1.629 -1.468,-2.951 -3.279,-2.951 -1.811,0 -3.279,1.322 -3.279,2.951 l 0,19.281 c 0,1.631 1.468,2.951 3.279,2.951 1.811,0 3.279,-1.32 3.279,-2.951 L 0,0 Z" style="fill:#005200;fill-opacity:1;fill-rule:nonzero;stroke:none"/></g></g><g id="g8373" transform="translate(-170.52984,308.06424)"><g id="g2206" transform="translate(657.5518,140.9434)"><path id="path2208" d="m 0,0 c 5.188,-3.445 8.611,-9.34 8.611,-16.035 0,-10.625 -8.611,-19.238 -19.238,-19.238 -10.623,0 -19.235,8.613 -19.235,19.238 0,6.693 3.424,12.586 8.612,16.029 6.28,3.733 5.623,6.225 5.623,6.225 -0.788,4.328 -5.623,3.25 -5.623,3.25 -9.985,-4.162 -17.008,-14.01 -17.008,-25.504 0,-15.26 12.371,-27.631 27.631,-27.631 15.264,0 27.633,12.371 27.633,27.631 0,11.494 -7.02,21.342 -17.006,25.504 0,0 -4.609,1.078 -5.788,-2.332 0,0 -1.051,-4.59 5.788,-7.137" style="fill:#680000;fill-opacity:1;fill-rule:nonzero;stroke:none"/></g><g id="g2210" transform="translate(650.0576,136.9531)"><path id="path2212" d="m 0,0 c 0,-1.629 -1.47,-2.951 -3.28,-2.951 -1.811,0 -3.278,1.322 -3.278,2.951 l 0,19.281 c 0,1.631 1.467,2.951 3.278,2.951 1.81,0 3.28,-1.32 3.28,-2.951 L 0,0 Z" style="fill:#680000;fill-opacity:1;fill-rule:nonzero;stroke:none"/></g></g><g id="g2214" style="opacity:.497"><g id="g2238"><g id="g2240" clip-path="url(#clipPath2218)"><g id="g2242"><g id="g2244"><g id="g2246"><g id="g2248"><path style="fill:url(#linearGradient2226);stroke:none" id="path2250" d="m 702.13165,275.74138 c -31.896,0 -58.078,-24.432 -60.871,-55.6 10.903,4.66 23.225,3.692 36.186,-2.508 15.877,-7.593 34.979,-13.097 52.492,-7.607 14.125,4.428 24.572,10.769 32.012,17.203 -5.814,27.707 -30.384,48.512 -59.819,48.512"/></g></g></g></g></g></g></g></g></svg>