<svg xmlns="http://www.w3.org/2000/svg" xmlns:svg="http://www.w3.org/2000/svg" id="svg2" width="708" height="413" version="1.1" style="display:inline"><metadata id="metadata7"/><g id="layer2" style="display:inline"><rect style="fill:#000;fill-opacity:1;stroke:none;display:inline" id="rect2831" width="221.775" height="413" x="0" y="0"/><rect style="fill:#000;fill-opacity:1;stroke:none" id="rect3659" width="270.721" height="406.081" x="245.467" y="2.878"/><path style="fill:#000;fill-opacity:1;stroke:none" id="path3661" d="m 682.86313,199.85782 a 186.37314,188.89853 0 1 1 -372.74628,0 186.37314,188.89853 0 1 1 372.74628,0 z" transform="matrix(1.0650407,0,0,1.0748663,-20.170202,-8.901702)"/></g><g id="layer3" style="display:inline"><path style="fill:#fff;fill-opacity:1;stroke:none" id="rect3630" d="m 29.795501,134.20312 62.625,0 0,61.625 38.374999,0 0,-61.625 60.625,0 0,-38.406245 -60.625,0 0,-63.625 -38.374999,0 0,63.625 -62.625,0 0,38.406245 z"/><path style="fill:#fff;fill-opacity:1;stroke:none" id="rect3630-1" d="m 29.795496,321.07619 62.625,0 0,61.625 38.375004,0 0,-61.625 60.625,0 0,-38.40624 -60.625,0 0,-63.625 -38.375004,0 0,63.625 -62.625,0 0,38.40624 z"/><path style="fill:#fff;fill-opacity:1;stroke:none" id="rect3663" d="m 328.3125,83.6875 0,325.28125 60.59375,0 0,-82.84375 95,0.25 16.125,0.28125 C 657.79366,313.08693 640.6892,94.944643 504.0625,83.78125 l 0,-0.09375 -1.15625,0 -114,0 -1,0 -59.59375,0 z m 60.59375,48.5 98,0 c 95.43046,10.64665 90.1644,140.94792 -1.3125,144.78125 l -2.15625,-0.0625 -94.53125,0.71875 0,-145.4375 z"/></g></svg>