<svg xmlns="http://www.w3.org/2000/svg" xmlns:svg="http://www.w3.org/2000/svg" id="Layer_1" width="300" height="69.834" version="1.0" viewBox="0 0 300.002 69.834" xml:space="preserve" style="overflow:visible"><g id="g3258" transform="matrix(0.20615142,0,0,0.20615142,-0.25768927,-0.25768927)"><g id="g3248"><polygon id="polygon2993" points="1419.5 2.15 1429.2 2.15 1438.1 25.15 1446.8 2.15 1456.5 2.15 1456.5 36.25 1450.3 36.25 1450.3 10.2 1450.2 10.2 1440.6 36.25 1435.5 36.25 1425.9 10.2 1425.7 10.2 1425.7 36.25 1419.5 36.25"/><polygon id="polygon2995" points="1401 36.25 1394.8 36.25 1394.8 7.9 1384.3 7.9 1384.3 2.15 1411.4 2.15 1411.4 7.9 1401 7.9"/></g><g id="g3252"><polygon id="polygon2997" points="1347.6 1.25 1347.6 98.15 1347.3 130.1 1347.6 153.5 1347.6 238.55 1254.8 238.55 1254.8 1.25"/><path id="path3005" d="m 1216.8,63.65 v 175 H 1127 V 60.45 h -85.6 v 178.2 H 951.95 V 60.45 H 866.4 v 178.2 H 776.45 V 1.25 h 378.4 c 17.05,0 31.65,6.1 43.8,18.2 12.1,12.15 18.2,26.9 18.2,44.2 z"/><path id="path3033" d="m 738.95,63.65 v 112.5 c 0,17.351 -6.149,32.051 -18.399,44.2 -12.25,12.101 -26.9,18.2 -44,18.2 h -287 l -0.4,-140.4 h 89.85 l 0.4,81.35 h 169.7 V 60.3 h -259.95 l 0.4,-59.05 h 287 c 17.1,0 31.75,6.1 44,18.2 12.25,12.15 18.4,26.85 18.4,44.2 z"/><polygon id="polygon3053" points="256 1.25 350.3 1.25 350.3 238.55 256 238.55 256 153.5 94.1 153.5 94.1 238.55 1.25 238.55 1.25 1.25 94.1 1.25 94.1 98.15 256 98.15"/></g><g id="g3208"><polygon id="polygon2999" points="1320 332.7 1343.2 332.7 1343.2 339 1312.7 339 1312.7 297.3 1342.8 297.3 1342.8 303.6 1320 303.6 1320 314.55 1341 314.55 1341 320.5 1320 320.5"/><path id="path3001" d="m 1294.8,323.15 h 7.149 c -0.6,9.95 -7.649,16.851 -17.75,16.851 -12.5,0 -20,-9.9 -20,-21.851 0,-11.899 7.5,-21.85 20,-21.85 9.4,0.05 16.801,5.25 17.7,14.25 h -7.3 c -1.25,-4.8 -4.3,-8.3 -10.4,-8.3 -8.949,0 -12.699,7.899 -12.699,15.899 0,8 3.75,15.9 12.699,15.9 6.501,0.002 10.051,-4.848 10.601,-10.899 z"/><path id="path3003" d="m 1242.3,297.3 16.1,41.7 h -7.85 l -3.9,-11.05 h -16.7 L 1226,339 h -7.5 l 16,-41.7 h 7.75 z m 2.4,25.099 -6.25,-17.899 h -0.149 l -6.351,17.899 h 12.75 z"/><polygon id="polygon3007" points="1216.6 303.6 1195.2 303.6 1195.2 314.55 1214 314.55 1214 320.5 1195.2 320.5 1195.2 339 1187.8 339 1187.8 297.3 1216.6 297.3"/><path id="path3009" d="m 1178,339 h -7.85 c -1.1,-1.8 -1.1,-4.101 -1.1,-6.101 0,-7.649 -1.601,-11.05 -8.301,-11.05 h -10.75 v 17.15 h -7.3 v -41.7 h 19.9 c 9.149,0 13.8,4.2 13.8,11.3 0,8 -5.55,10.05 -6.9,10.5 v 0.101 c 2.5,0.35 6.2,2.25 6.2,8.85 0,4.848 0.701,9.299 2.301,10.949 z m -8.9,-29.351 c 0,-5.35 -3.45,-6.399 -7.25,-6.399 h -11.851 v 13.05 h 11.95 c 4.651,0 7.151,-2.3 7.151,-6.651 z"/><polygon id="polygon3011" points="1109 332.7 1132.2 332.7 1132.2 339 1101.8 339 1101.8 297.3 1131.8 297.3 1131.8 303.6 1109 303.6 1109 314.55 1130.1 314.55 1130.1 320.5 1109 320.5"/><polygon id="polygon3013" points="1079.6 339 1072.2 339 1072.2 303.6 1059 303.6 1059 297.3 1092.8 297.3 1092.8 303.6 1079.6 303.6"/><polygon id="polygon3015" points="1043.4 297.3 1050.3 297.3 1050.3 339 1042.6 339 1023.6 308.35 1023.4 308.35 1023.4 339 1016.4 339 1016.4 297.3 1024.2 297.3 1043.2 328.05 1043.4 328.05"/><rect id="rect3017" width="7.301" height="41.7" x="996.45" y="297.3"/><path id="path3019" d="m 951.95,297.3 16.1,41.7 h -7.85 l -3.899,-11.05 h -16.65 l -3.9,11.05 h -7.55 l 16,-41.7 h 7.75 z m 2.4,25.099 -6.25,-17.899 h -0.15 l -6.35,17.899 h 12.75 z"/><rect id="rect3021" width="7.301" height="41.7" x="912.7" y="297.3"/><path id="path3023" d="m 883.75,297.3 c 12.85,0 18.399,9.35 18.399,20.85 0,11.5 -5.549,20.85 -18.399,20.85 h -17.3 v -41.7 h 17.3 z m 11.1,20.849 c 0,-8.35 -2.45,-14.899 -13.9,-14.899 h -7.199 v 29.8 h 7.199 c 11.45,0 13.9,-6.55 13.9,-14.901 z"/><polygon id="polygon3025" points="832.85 332.7 856 332.7 856 339 825.55 339 825.55 297.3 855.6 297.3 855.6 303.6 832.85 303.6 832.85 314.55 853.9 314.55 853.9 320.5 832.85 320.5"/><polygon id="polygon3027" points="769.4 297.3 779.7 297.3 791.2 329.95 791.3 329.95 802.55 297.3 812.7 297.3 812.7 339 805.75 339 805.75 306.85 805.65 306.85 794.05 339 788.05 339 776.5 306.85 776.35 306.85 776.35 339 769.4 339"/><rect id="rect3029" width="7.301" height="41.7" x="749.2" y="297.3"/><polygon id="polygon3031" points="727 339 719.7 339 719.7 303.6 706.5 303.6 706.5 297.3 740.25 297.3 740.25 303.6 727 303.6"/><polygon id="polygon3035" points="685.5 332.7 706.7 332.7 706.7 339 678.2 339 678.2 297.3 685.5 297.3"/><path id="path3037" d="M 665.7,297.3 V 324 c 0,10.7 -6.85,16 -17.1,16 -10.3,0 -17.15,-5.3 -17.15,-16 v -26.7 h 7.3 v 24.3 c 0,5.601 0.4,12.101 9.85,12.101 9.45,0 9.8,-6.5 9.8,-12.101 v -24.3 h 7.3 z"/><polygon id="polygon3039" points="575.8 297.3 586.1 297.3 597.6 329.95 597.7 329.95 608.95 297.3 619.1 297.3 619.1 339 612.15 339 612.15 306.85 612 306.85 600.45 339 594.45 339 582.85 306.85 582.75 306.85 582.75 339 575.8 339"/><polygon id="polygon3041" points="535.9 297.3 542.85 297.3 542.85 339 535.15 339 516.15 308.35 516 308.35 516 339 509.05 339 509.05 297.3 516.75 297.3 535.8 328.05 535.9 328.05"/><path id="path3043" d="m 478.6,296.3 c 12.5,0 19.95,9.95 19.95,21.85 0,11.95 -7.45,21.851 -19.95,21.851 -12.5,0 -20,-9.9 -20,-21.851 0,-11.9 7.5,-21.85 20,-21.85 z m 12.65,21.849 c 0,-8 -3.7,-15.899 -12.65,-15.899 -8.95,0 -12.7,7.899 -12.7,15.899 0,8 3.75,15.9 12.7,15.9 8.95,0 12.65,-7.9 12.65,-15.9 z"/><rect id="rect3045" width="7.3" height="41.7" x="440.5" y="297.3"/><polygon id="polygon3047" points="418.3 339 411 339 411 303.6 397.8 303.6 397.8 297.3 431.55 297.3 431.55 303.6 418.3 303.6"/><rect id="rect3049" width="7.3" height="41.7" x="381.45" y="297.3"/><polygon id="polygon3051" points="361.75 297.3 368.7 297.3 368.7 339 361 339 342 308.35 341.85 308.35 341.85 339 334.9 339 334.9 297.3 342.6 297.3 361.65 328.05 361.75 328.05"/><rect id="rect3055" width="7.3" height="41.7" x="314.85" y="297.3"/><polygon id="polygon3057" points="304.9 303.6 283.4 303.6 283.4 314.55 302.3 314.55 302.3 320.5 283.4 320.5 283.4 339 276.1 339 276.1 297.3 304.9 297.3"/><polygon id="polygon3059" points="242.5 332.7 265.65 332.7 265.65 339 235.2 339 235.2 297.3 265.25 297.3 265.25 303.6 242.5 303.6 242.5 314.55 263.55 314.55 263.55 320.5 242.5 320.5"/><path id="path3061" d="m 206.25,297.3 c 12.85,0 18.4,9.35 18.4,20.85 0,11.5 -5.55,20.85 -18.4,20.85 h -17.3 v -41.7 h 17.3 z m 11.1,20.849 c 0,-8.35 -2.45,-14.899 -13.9,-14.899 h -7.2 v 29.8 h 7.2 c 11.45,0 13.9,-6.55 13.9,-14.901 z"/><rect id="rect3063" width="14.85" height="3.851" x="164.75" y="317.35"/><polygon id="polygon3065" points="148.45 297.3 155.75 297.3 155.75 339 148.45 339 148.45 320.2 129.5 320.2 129.5 339 122.2 339 122.2 297.3 129.5 297.3 129.5 313.9 148.45 313.9"/><path id="path3067" d="M 110.3,317.05 V 339 h -4.65 l -1.1,-4.9 c -3.95,4.45 -7.5,5.9 -12.55,5.9 -12.5,0 -20,-9.9 -20,-21.851 0,-11.899 7.5,-21.85 20,-21.85 9.1,0 16.75,4.85 17.85,14.25 h -7.15 c -0.65,-5.5 -5.45,-8.3 -10.7,-8.3 -8.95,0 -12.7,7.899 -12.7,15.899 0,8 3.75,15.9 12.7,15.9 7.45,0.1 11.55,-4.4 11.65,-11.45 h -11.1 v -5.55 h 17.75 z"/><rect id="rect3069" width="7.3" height="41.7" x="53.6" y="297.3"/><polygon id="polygon3071" points="33.45 297.3 40.75 297.3 40.75 339 33.45 339 33.45 320.2 14.45 320.2 14.45 339 7.15 339 7.15 297.3 14.45 297.3 14.45 313.9 33.45 313.9"/></g></g></svg>