<svg xmlns="http://www.w3.org/2000/svg" xmlns:svg="http://www.w3.org/2000/svg" xmlns:xlink="http://www.w3.org/1999/xlink" id="Layer_1" width="716.078" height="511.708" x="0" y="0" enable-background="new 0 0 512 512" version="1.1" viewBox="0 0 716.078 511.708" xml:space="preserve"><metadata id="metadata19"/><defs id="defs17"><linearGradient id="linearGradient4186"><stop style="stop-color:#55d400;stop-opacity:1" id="stop4188" offset="0"/><stop style="stop-color:#250;stop-opacity:1" id="stop4190" offset="1"/></linearGradient><linearGradient id="linearGradient3368"><stop style="stop-color:#d5e5ff;stop-opacity:1" id="stop3370" offset="0"/><stop style="stop-color:#5f8dd3;stop-opacity:1" id="stop3372" offset="1"/></linearGradient><linearGradient id="linearGradient3360"><stop style="stop-color:#d5e5ff;stop-opacity:1" id="stop3362" offset="0"/><stop style="stop-color:#3771c8;stop-opacity:1" id="stop3364" offset="1"/></linearGradient><linearGradient id="linearGradient3366" x1="43.682" x2="641.194" y1="148.5" y2="501.079" gradientTransform="matrix(0.65802131,0,0,0.6909843,293.3032,144.91839)" gradientUnits="userSpaceOnUse" xlink:href="#linearGradient3360"/><linearGradient id="linearGradient3374" x1="-145.088" x2="196.571" y1="-27.789" y2="211.684" gradientTransform="matrix(0.7667984,0,0,1,120.0432,53.530375)" gradientUnits="userSpaceOnUse" xlink:href="#linearGradient3368"/><linearGradient id="linearGradient4192" x1="294.076" x2="413.422" y1="226.212" y2="443.844" gradientUnits="userSpaceOnUse" xlink:href="#linearGradient4186"/></defs><rect style="fill:url(#linearGradient3374);fill-opacity:1;stroke:#000;stroke-width:30;stroke-miterlimit:4;stroke-dasharray:none;stroke-opacity:1" id="rect3356" width="302.656" height="281.595" x="-.78" y="12.481"/><rect style="fill:url(#linearGradient3366);fill-opacity:1;stroke:#000;stroke-width:29.48887634;stroke-miterlimit:18.89999962;stroke-dasharray:none;stroke-opacity:1" id="rect3358" width="416.273" height="265.725" x="313.321" y="232.977"/><path style="fill:url(#linearGradient4192);fill-opacity:1;stroke:#000;stroke-opacity:1;stroke-width:37.2;stroke-miterlimit:4;stroke-dasharray:none" id="path9" d="m 316.1651,15.707485 c -71.797,0 -130,58.758701 -130,131.242195 l 0,127.99609 0,94.95508 c 0,69.482 58.203,125.80664 130,125.80664 l 70,0 c 71.797,0 130,-56.32464 130,-125.80664 l 0,-94.95508 0,-0.23828 0,-127.75781 c 0,-72.483494 -58.203,-131.242195 -130,-131.242195 l -17,0 0,75.148438 c 15.071,6.485656 25.55664,20.850527 25.55664,37.542977 l 0,70.88867 c 0,20.98267 -13.79982,36.12758 -28.4818,36.95794 l -32.68482,-0.38802 c -16.04605,-0.0503 -25.94666,-20.07048 -25.94666,-36.56792 l 0,-70.89062 c 0,-16.6925 10.48464,-31.057372 25.55664,-37.543027 l 0,-75.148438 z"/></svg>