<svg xmlns="http://www.w3.org/2000/svg" xmlns:svg="http://www.w3.org/2000/svg" id="svg2" width="372.458" height="106.125" version="1.1" viewBox="0 0 349.179 99.492"><metadata id="metadata7"/><g id="layer1" transform="translate(-202.94531,-434.18945)"><g id="g4236"><path id="rect3407" d="m 203.44531,434.68945 0,14.67774 15.49219,0 0,68.49414 -15.49219,0 0,14.67773 54.22461,0 0,-14.67773 -14.67773,0 0,-68.49414 14.67773,0 0,-14.67774 -14.67773,0 -24.05469,0 -15.49219,0 z" style="fill:#ccc;stroke:#000;stroke-opacity:1"/><path id="rect3413" d="m 286.55859,453.50195 c -11.4873,0 -20.73437,9.24707 -20.73437,20.73438 l 0,37.5664 c 0,11.48731 9.24707,20.73633 20.73437,20.73633 l 24.57813,0 c 11.4873,0 20.73437,-9.24902 20.73437,-20.73633 l 0,-37.5664 c 0,-11.48731 -9.24707,-20.73438 -20.73437,-20.73438 l -24.57813,0 z m 12.28907,17.70703 c 2.48455,0 4.48437,1.99983 4.48437,4.48438 l 0,34.6543 c 0,2.48455 -1.99982,4.48437 -4.48437,4.48437 -2.48456,0 -4.48438,-1.99982 -4.48438,-4.48437 l 0,-34.6543 c 0,-2.48455 1.99982,-4.48438 4.48438,-4.48438 z" style="fill:#ccc;stroke:#000;stroke-opacity:1"/><rect id="rect4215" width="26.909" height="97.849" x="343.287" y="434.69" style="fill:#ccc;stroke:#000;stroke-opacity:1"/><rect id="rect4219" width="23.647" height="15.115" x="460.706" y="438.386" ry="0" style="fill:#ccc;stroke:#000;stroke-opacity:1"/><rect id="rect4221" width="23.647" height="74.202" x="460.706" y="458.337" ry="0" style="fill:#ccc;stroke:#000;stroke-opacity:1"/><path id="path4227" d="m 419.8457,457.25195 c -8.33202,-0.014 -18.70464,0.6471 -23.69336,2.58203 -7.98195,3.0959 -9.8589,5.27739 -12.08789,10.90625 -2.22899,5.62886 0.34375,13.125 0.34375,13.125 l 21.1836,-2.41796 c 0,0 4.45159,-6.4043 9.55664,-6.4043 5.10506,0 1.38086,4.75781 1.38086,4.75781 0,0 -38.51563,9.85601 -38.51563,28.4707 0,18.61468 12.3849,23.30353 17.2168,24.72852 4.83191,1.42499 16.70366,-6.28324 21.29883,-5.04102 4.59517,1.24222 4.49023,4.58008 4.49023,4.58008 l 24.60156,0 0,-58.30273 c -2.55471,-12.57563 -9.44902,-15.38667 -14.58593,-16.35938 -1.92635,-0.36476 -6.19024,-0.61659 -11.18946,-0.625 z m -7.57617,48.48633 a 4.0294456,4.7777715 0 0 1 4.0293,4.7793 4.0294456,4.7777715 0 0 1 -4.0293,4.77734 4.0294456,4.7777715 0 0 1 -4.0293,-4.77734 4.0294456,4.7777715 0 0 1 4.0293,-4.7793 z" style="fill:#ccc;fill-rule:evenodd;stroke:#000;stroke-width:1px;stroke-linecap:butt;stroke-linejoin:miter;stroke-opacity:1"/><path id="path4231" d="m 498.6228,532.53877 22.83146,0 -0.0582,-50.65858 c 0,0 0.0587,-3.03542 4.5283,-3.14349 4.0725,-0.0985 4.20269,2.93108 4.0335,2.93976 l 0.0582,7.64563 21.60834,-0.50665 0,-30.4789 -21.60834,0 c 0,0 -1.31421,3.0808 -3.12055,3.32485 -1.80634,0.24405 -5.44125,-3.32485 -5.44125,-3.32485 l -26.92958,0 0,11.21691 4.09812,0.21402 z" style="fill:#ccc;fill-rule:evenodd;stroke:#000;stroke-width:1px;stroke-linecap:butt;stroke-linejoin:miter;stroke-opacity:1"/></g></g></svg>