<svg xmlns="http://www.w3.org/2000/svg" xmlns:svg="http://www.w3.org/2000/svg" id="svg13387" width="66.096" height="66.101" version="1.1" viewBox="0 0 17.488 17.489"><metadata id="metadata13384"/><g id="layer1" transform="translate(1200.1249,450.31006)"><path id="path12702" d="m -1186.2885,-449.98171 -5.0919,5.09191 -5.0924,-5.09244 c -0.4371,-0.43709 -1.1459,-0.43709 -1.583,0 l -1.7412,1.74149 c -0.4374,0.43736 -0.4371,1.14564 0,1.583 l 5.0921,5.09217 -5.0921,5.09217 c -0.4374,0.43709 -0.4369,1.14591 0,1.58274 l 1.7409,1.74096 c 0.4374,0.43709 1.1462,0.43735 1.583,2.6e-4 l 5.0925,-5.0919 5.0919,5.09243 c 0.4373,0.43736 1.1456,0.43736 1.5827,0 l 1.7412,-1.74122 c 0.4371,-0.43683 0.4371,-1.14591 0,-1.58274 l -5.0919,-5.09243 5.0919,-5.09191 c 0.4374,-0.43736 0.4369,-1.14617 0,-1.583 l -1.7412,-1.74122 c -0.4368,-0.43763 -1.1456,-0.43736 -1.5825,-2.7e-4 z" style="fill:#f0f0f0;fill-opacity:1;stroke-width:.26458332"/></g></svg>