<svg xmlns="http://www.w3.org/2000/svg" xmlns:svg="http://www.w3.org/2000/svg" id="svg13152" width="32" height="32" version="1.1" viewBox="0 0 8.467 8.467"><metadata id="metadata13149"/><g id="layer1" transform="translate(-112.24226,-237.93441)"><g id="g847" transform="translate(28.212925,127.81139)"><g id="g828"><path style="color:#000;font-style:normal;font-variant:normal;font-weight:400;font-stretch:normal;font-size:medium;line-height:normal;font-family:sans-serif;font-variant-ligatures:normal;font-variant-position:normal;font-variant-caps:normal;font-variant-numeric:normal;font-variant-alternates:normal;font-feature-settings:normal;text-indent:0;text-align:start;text-decoration:none;text-decoration-line:none;text-decoration-style:solid;text-decoration-color:#000;letter-spacing:normal;word-spacing:normal;text-transform:none;writing-mode:lr-tb;direction:ltr;text-orientation:mixed;dominant-baseline:auto;baseline-shift:baseline;text-anchor:start;white-space:normal;shape-padding:0;clip-rule:nonzero;display:inline;overflow:visible;visibility:visible;opacity:1;isolation:auto;mix-blend-mode:normal;color-interpolation:sRGB;color-interpolation-filters:linearRGB;solid-color:#000;solid-opacity:1;vector-effect:none;fill:#000;fill-opacity:1;fill-rule:nonzero;stroke:none;stroke-width:.26458332;stroke-linecap:butt;stroke-linejoin:miter;stroke-miterlimit:4;stroke-dasharray:none;stroke-dashoffset:0;stroke-opacity:1;color-rendering:auto;image-rendering:auto;shape-rendering:auto;text-rendering:auto;enable-background:accumulate" id="rect10-2-4" d="m 85.087668,112.23969 c 0,1.23472 0,2.46944 0,3.70416 h 6.35 v -3.70416 z"/><path style="fill:#000;fill-opacity:1;stroke:none;stroke-width:.81649607;stroke-opacity:1" id="rect822-5" d="m 14,22 -2,1 v 1 h 8 v -1 l -2,-1 z" transform="matrix(0.26458333,0,0,0.26458333,84.029335,110.12302)"/></g><rect id="rect841" width="5.821" height="2.91" x="85.352" y="112.504" style="fill:#142832;fill-opacity:1;stroke:none;stroke-width:.26458332;stroke-opacity:1"/></g><g style="font-style:normal;font-weight:400;font-size:30.44945908px;line-height:1.25;font-family:sans-serif;letter-spacing:0;word-spacing:0;fill:#8fc1eb;fill-opacity:1;stroke:#8fc0eb;stroke-width:1.43918622;stroke-linejoin:round;stroke-miterlimit:4;stroke-dasharray:none;stroke-opacity:1" id="text12540" aria-label="?" transform="matrix(0.08717207,0,0,0.08607367,106.87767,217.48389)"><path style="fill:#8fc1eb;fill-opacity:1;stroke:#8fc0eb;stroke-width:1.43918622;stroke-linejoin:round;stroke-miterlimit:4;stroke-dasharray:none;stroke-opacity:1" id="path14" d="m 117.24154,276.76178 q 0,1.45706 -0.52038,2.60188 -0.52037,1.12996 -1.36784,2.00717 -0.83261,0.84747 -1.91796,1.59087 -1.08536,0.74339 -2.30453,1.44218 v 3.34528 h -2.66135 v -4.53471 q 0.96641,-0.55011 2.08151,-1.2043 1.12996,-0.65419 1.84362,-1.32324 0.86233,-0.77313 1.33811,-1.59087 0.47577,-0.8326 0.47577,-2.11124 0,-1.68007 -1.14483,-2.49781 -1.12996,-0.8326 -2.92898,-0.8326 -1.60573,0 -3.04792,0.50551 -1.42731,0.50551 -2.25992,1.02588 h -0.14867 v -3.03305 q 1.04075,-0.40143 2.63161,-0.71366 1.60574,-0.32709 3.03306,-0.32709 3.19659,0 5.04021,1.56113 1.85849,1.54626 1.85849,4.08867 z m -5.87282,16.93454 h -3.03305 v -3.13713 h 3.03305 z"/></g></g></svg>